<svg width="80" height="80" viewBox="0 0 80 80" fill="none" xmlns="http://www.w3.org/2000/svg">
<mask id="mask0_7900_14744" style="mask-type:alpha" maskUnits="userSpaceOnUse" x="0" y="0" width="80" height="80">
<rect width="80" height="80" rx="10" fill="#5454D8"/>
</mask>
<g mask="url(#mask0_7900_14744)">
<rect x="-10" y="-9" width="99" height="99" fill="white"/>
<rect x="0.5" y="0.5" width="79" height="79" rx="11.5" stroke="#006BE0"/>
<path d="M52.1818 30.8922C51.9748 30.3935 51.9748 29.8475 52.1818 29.3488C52.3887 28.8502 52.7752 28.4637 53.2738 28.2568C53.5257 28.1521 53.7874 28.1022 54.0442 28.1022C54.8371 28.1022 55.59 28.5709 55.9117 29.3464C56.1186 29.845 56.1186 30.3911 55.9117 30.8897C55.7048 31.3884 55.3183 31.7749 54.8196 31.9818C54.321 32.1887 53.7749 32.1887 53.2763 31.9818C52.7776 31.7748 52.3911 31.3884 52.1842 30.8897L52.1818 30.8922ZM61.0156 42.1249C57.8591 46.9045 52.0126 51.3672 44.5474 54.6985C35.1476 58.8923 26.9 60.1936 21.6362 60.5479C19.5095 60.69 17.6694 60.695 16.1513 60.6326C16.9516 60.4406 17.6672 60.2462 18.2207 60.0866C19.3003 59.7749 20.345 59.4308 21.1628 59.1167C22.3471 58.6629 22.8307 58.4186 22.8507 57.8127C22.8632 57.4212 22.5789 56.985 22.0279 56.9426C18.1533 56.6583 15.1637 54.3371 13.8297 50.5672C12.3013 46.2463 12.8623 39.1451 18.5794 31.9001C17.6195 34.5355 16.9737 37.0512 16.9289 37.2308C16.8366 37.5948 17.0062 37.9738 17.3403 38.1483C17.6744 38.3229 18.0833 38.2431 18.3276 37.9564C18.3824 37.894 23.7652 31.681 30.8916 28.4869C30.9091 28.4794 30.9265 28.4719 30.944 28.462C39.2417 24.4378 48.5441 22.0664 57.0364 21.7573C56.2535 22.1114 55.6202 22.4081 55.1465 22.645C54.2465 23.0963 53.6531 23.3929 53.7179 24.0612C53.7553 24.4302 54.0296 24.7269 54.4011 24.8042C60.3573 26.0159 63.9977 29.0528 65.2194 33.8274C66.6406 39.3799 64.4814 46.0319 62.1826 50.1089C62.8433 47.284 63.1226 44.5713 62.4593 42.3373C62.3696 42.0356 62.1128 41.8137 61.8036 41.7663C61.492 41.719 61.1828 41.8586 61.0083 42.1204L61.0156 42.1249ZM50.6855 31.5108C51.057 32.4084 51.7551 33.1065 52.6527 33.478C53.1015 33.665 53.5728 33.7572 54.044 33.7572C54.5152 33.7572 54.9864 33.665 55.4352 33.478C56.3328 33.1065 57.0309 32.4084 57.4024 31.5108C57.7739 30.6132 57.7739 29.6258 57.4024 28.7283C56.6344 26.8758 54.5027 25.9932 52.6502 26.7611C51.7526 27.1326 51.0545 27.8307 50.683 28.7283C50.3115 29.6259 50.3115 30.6133 50.683 31.5108H50.6855ZM47.4268 42.0074C47.0877 42.2991 47.0503 42.8102 47.342 43.1493C47.5016 43.3363 47.7285 43.431 47.9554 43.431C48.1423 43.431 48.3293 43.3662 48.4839 43.2341C51.411 40.7158 52.6078 38.1104 51.7676 36.0858C50.9747 34.1735 48.4864 33.1637 44.9411 33.3208C44.4948 33.3407 44.1483 33.7172 44.1682 34.166C44.1882 34.6123 44.5647 34.9614 45.0135 34.9389C47.7985 34.8168 49.7632 35.4775 50.2743 36.7067C50.8129 38.0057 49.7233 40.0352 47.4295 42.0099L47.4268 42.0074ZM30.073 41.2369C30.3971 40.9278 30.4095 40.4166 30.1004 40.0925C29.7912 39.7684 29.2801 39.7559 28.9559 40.0651C26.4826 42.4212 25.5476 44.75 26.3255 46.6245C27.0635 48.4047 29.2826 49.407 32.4514 49.407C32.6285 49.407 32.8105 49.4045 32.995 49.397C33.4413 49.382 33.7903 49.0056 33.7754 48.5593C33.7605 48.113 33.3914 47.7614 32.9377 47.7789C30.235 47.8736 28.3201 47.2079 27.8189 46.0061C27.3328 44.8293 28.173 43.0466 30.0704 41.239L30.073 41.2369ZM39.0562 49.0235C40.0311 49.0235 41.0259 48.8365 41.9809 48.44C43.8733 47.6571 45.3468 46.1811 46.1322 44.2887C46.9151 42.3963 46.9151 40.3119 46.1322 38.4197C44.514 34.5127 40.0185 32.6501 36.1117 34.2683C32.2047 35.8865 30.3422 40.382 31.9604 44.2888C33.1821 47.2384 36.0444 49.0236 39.0559 49.0236L39.0562 49.0235ZM20.3567 44.548C20.4465 44.5804 20.5387 44.5954 20.631 44.5954C20.9626 44.5954 21.2742 44.3909 21.3939 44.0593C22.9871 39.6287 28.4177 34.9441 35.2244 32.124C40.024 30.1368 44.9332 29.2641 49.0523 29.6656C49.4986 29.7079 49.8925 29.3838 49.9374 28.94C49.9798 28.4962 49.6557 28.0997 49.2119 28.0549C44.8337 27.626 39.6477 28.541 34.6085 30.6279C27.2879 33.6598 21.6413 38.5963 19.8732 43.5111C19.7211 43.9325 19.9405 44.3963 20.3619 44.5458L20.3567 44.548ZM24.3136 50.8212C24.6851 49.9236 24.6851 48.9363 24.3136 48.0387C23.9421 47.1412 23.244 46.443 22.3464 46.0716C21.4488 45.7001 20.4614 45.7001 19.5639 46.0716C18.6664 46.4431 17.9682 47.1412 17.5967 48.0387C17.2252 48.9363 17.2252 49.9237 17.5967 50.8212C17.9682 51.7188 18.6663 52.4169 19.5639 52.7884C20.0127 52.9754 20.4839 53.0677 20.9551 53.0677C21.4264 53.0677 21.8976 52.9754 22.3464 52.7884C23.244 52.4169 23.9421 51.7188 24.3136 50.8212ZM58.267 33.5727C58.1174 33.1513 57.6537 32.9319 57.2323 33.0815C56.8109 33.2311 56.5915 33.6949 56.7411 34.1162C58.5213 39.0978 52.2407 46.3511 42.7436 50.285C36.4703 52.883 29.8684 53.5512 25.5126 52.0278C25.0888 51.8807 24.63 52.1026 24.4804 52.524C24.3333 52.9454 24.5552 53.4066 24.9766 53.5562C26.7194 54.167 28.7414 54.4662 30.9307 54.4662C34.7529 54.4662 39.0858 53.5537 43.3623 51.781C53.8195 47.4501 60.364 39.452 58.2651 33.5729L58.267 33.5727ZM44.6338 43.6703C45.2522 42.1769 45.2522 40.5338 44.6338 39.0403C43.6689 36.7141 41.4125 35.3053 39.0366 35.3053C38.2662 35.3053 37.4833 35.4524 36.7304 35.7666C33.6486 37.0432 32.1801 40.5886 33.4567 43.6707C34.7332 46.7524 38.2787 48.2209 41.3607 46.9444C42.8542 46.326 44.0161 45.1641 44.6344 43.6707L44.6338 43.6703ZM22.8173 48.6594C22.6104 48.1608 22.2239 47.7743 21.7253 47.5674C21.476 47.4651 21.2142 47.4128 20.9524 47.4128C20.6906 47.4128 20.4288 47.4652 20.1795 47.5674C19.6808 47.7743 19.2943 48.1608 19.0874 48.6594C18.8805 49.1581 18.8805 49.7041 19.0874 50.2028C19.2944 50.7014 19.6808 51.0879 20.1795 51.2948C20.6781 51.5017 21.2242 51.5018 21.7228 51.2948C22.2215 51.0879 22.608 50.7014 22.8149 50.2028C23.0218 49.7041 23.0218 49.1581 22.8149 48.6594H22.8173ZM57.4021 64.2048L55.789 63.5615C55.7217 63.5341 55.6668 63.4792 55.6394 63.4119L54.9961 61.7988C54.9063 61.5744 54.5897 61.5744 54.5024 61.7988L53.8591 63.4119C53.8317 63.4792 53.7769 63.5341 53.7096 63.5615L52.0964 64.2048C51.872 64.2945 51.872 64.6112 52.0964 64.6985L53.7096 65.3417C53.7769 65.3692 53.8317 65.424 53.8591 65.4913L54.5024 67.1045C54.5922 67.3289 54.9088 67.3289 54.9961 67.1045L55.6394 65.4913C55.6668 65.424 55.7217 65.3692 55.789 65.3417L57.4021 64.6985C57.6265 64.6087 57.6265 64.292 57.4021 64.2048ZM66.8317 59.0861L64.7199 58.2458C64.6526 58.2184 64.5977 58.1636 64.5703 58.0962L63.73 55.9844C63.6403 55.76 63.3236 55.76 63.2364 55.9844L62.3961 58.0962C62.3687 58.1636 62.3138 58.2184 62.2465 58.2458L60.1347 59.0861C59.9103 59.1758 59.9103 59.4925 60.1347 59.5798L62.2465 60.42C62.3138 60.4474 62.3687 60.5023 62.3961 60.5696L63.2364 62.6814C63.3261 62.9058 63.6428 62.9058 63.73 62.6814L64.5703 60.5696C64.5977 60.5023 64.6526 60.4474 64.7199 60.42L66.8317 59.5798C67.0561 59.49 67.0561 59.1733 66.8317 59.0861ZM15.6744 21.5322L17.1255 22.1082C17.2078 22.1406 17.2751 22.2079 17.3075 22.2902L17.8835 23.7412C17.9932 24.0155 18.3796 24.0155 18.4894 23.7412L19.0653 22.2902C19.0977 22.2079 19.165 22.1406 19.2473 22.1082L20.6984 21.5322C20.9726 21.4225 20.9726 21.036 20.6984 20.9263L19.2473 20.3504C19.165 20.318 19.0977 20.2506 19.0653 20.1684L18.4894 18.7173C18.3796 18.443 17.9932 18.443 17.8835 18.7173L17.3075 20.1684C17.2751 20.2506 17.2078 20.318 17.1255 20.3504L15.6744 20.9263C15.4002 21.036 15.4002 21.4225 15.6744 21.5322ZM23.7131 16.4135L25.6603 17.1889C25.7426 17.2213 25.8099 17.2886 25.8423 17.3709L26.6177 19.3182C26.7274 19.5924 27.1139 19.5924 27.2236 19.3182L27.999 17.3709C28.0314 17.2886 28.0987 17.2213 28.181 17.1889L30.1283 16.4135C30.4025 16.3038 30.4025 15.9173 30.1283 15.8076L28.181 15.0322C28.0987 14.9998 28.0314 14.9325 27.999 14.8502L27.2236 12.903C27.1139 12.6287 26.7274 12.6287 26.6177 12.903L25.8423 14.8502C25.8099 14.9325 25.7426 14.9998 25.6603 15.0322L23.7131 15.8076C23.4388 15.9173 23.4388 16.3038 23.7131 16.4135Z" fill="#006BE0"/>
</g>
</svg>
